<mxfile host="app.diagrams.net" agent="Mozilla/5.0 (Macintosh; Intel Mac OS X 10_15_7) AppleWebKit/537.36 (KHTML, like Gecko) Chrome/135.0.0.0 Safari/537.36" version="27.0.5">
  <diagram name="第 1 页" id="Ke502KQ1WeKImCU888vT">
    <mxGraphModel dx="1399" dy="646" grid="1" gridSize="10" guides="1" tooltips="1" connect="1" arrows="1" fold="1" page="1" pageScale="1" pageWidth="827" pageHeight="1169" math="0" shadow="0">
      <root>
        <mxCell id="0" />
        <mxCell id="1" parent="0" />
        <mxCell id="McudIKGl9F88ILY4ECNT-2" value="Visit Keyword" style="rounded=0;whiteSpace=wrap;html=1;" vertex="1" parent="1">
          <mxGeometry x="260" y="80" width="160" height="40" as="geometry" />
        </mxCell>
        <mxCell id="McudIKGl9F88ILY4ECNT-3" value="New Keyword" style="rounded=0;whiteSpace=wrap;html=1;" vertex="1" parent="1">
          <mxGeometry x="420" y="80" width="230" height="40" as="geometry" />
        </mxCell>
        <mxCell id="McudIKGl9F88ILY4ECNT-5" value="Structure Keyword" style="rounded=0;whiteSpace=wrap;html=1;" vertex="1" parent="1">
          <mxGeometry x="420" width="70" height="40" as="geometry" />
        </mxCell>
        <mxCell id="McudIKGl9F88ILY4ECNT-6" value="PSERP Test Keyword" style="rounded=0;whiteSpace=wrap;html=1;" vertex="1" parent="1">
          <mxGeometry x="490" width="70" height="40" as="geometry" />
        </mxCell>
        <mxCell id="McudIKGl9F88ILY4ECNT-7" value="Algorithm Extract Keyword" style="rounded=0;whiteSpace=wrap;html=1;" vertex="1" parent="1">
          <mxGeometry x="560" width="90" height="40" as="geometry" />
        </mxCell>
        <mxCell id="McudIKGl9F88ILY4ECNT-8" value="Showroom" style="rounded=0;whiteSpace=wrap;html=1;" vertex="1" parent="1">
          <mxGeometry x="80" y="160" width="390" height="40" as="geometry" />
        </mxCell>
        <mxCell id="McudIKGl9F88ILY4ECNT-9" value="Filter Showroom" style="rounded=0;whiteSpace=wrap;html=1;" vertex="1" parent="1">
          <mxGeometry x="470" y="160" width="390" height="40" as="geometry" />
        </mxCell>
        <mxCell id="McudIKGl9F88ILY4ECNT-10" value="Showroom Sitemap" style="rounded=0;whiteSpace=wrap;html=1;" vertex="1" parent="1">
          <mxGeometry x="170" y="240" width="390" height="40" as="geometry" />
        </mxCell>
        <mxCell id="McudIKGl9F88ILY4ECNT-11" value="Filter Showroom Sitemap" style="rounded=0;whiteSpace=wrap;html=1;" vertex="1" parent="1">
          <mxGeometry x="560" y="240" width="210" height="40" as="geometry" />
        </mxCell>
        <mxCell id="McudIKGl9F88ILY4ECNT-12" value="" style="endArrow=none;html=1;rounded=0;entryX=0;entryY=1;entryDx=0;entryDy=0;exitX=1;exitY=0;exitDx=0;exitDy=0;" edge="1" parent="1" source="McudIKGl9F88ILY4ECNT-2" target="McudIKGl9F88ILY4ECNT-5">
          <mxGeometry width="50" height="50" relative="1" as="geometry">
            <mxPoint x="570" y="210" as="sourcePoint" />
            <mxPoint x="620" y="160" as="targetPoint" />
          </mxGeometry>
        </mxCell>
        <mxCell id="McudIKGl9F88ILY4ECNT-13" value="" style="endArrow=none;html=1;rounded=0;entryX=1;entryY=1;entryDx=0;entryDy=0;exitX=1;exitY=0;exitDx=0;exitDy=0;" edge="1" parent="1" source="McudIKGl9F88ILY4ECNT-3" target="McudIKGl9F88ILY4ECNT-7">
          <mxGeometry width="50" height="50" relative="1" as="geometry">
            <mxPoint x="430" y="90" as="sourcePoint" />
            <mxPoint x="430" y="50" as="targetPoint" />
          </mxGeometry>
        </mxCell>
        <mxCell id="McudIKGl9F88ILY4ECNT-14" value="" style="endArrow=none;html=1;rounded=0;entryX=0;entryY=1;entryDx=0;entryDy=0;" edge="1" parent="1" target="McudIKGl9F88ILY4ECNT-2">
          <mxGeometry width="50" height="50" relative="1" as="geometry">
            <mxPoint x="80" y="160" as="sourcePoint" />
            <mxPoint x="250" y="50" as="targetPoint" />
          </mxGeometry>
        </mxCell>
        <mxCell id="McudIKGl9F88ILY4ECNT-17" value="" style="endArrow=none;html=1;rounded=0;entryX=1;entryY=1;entryDx=0;entryDy=0;exitX=1;exitY=0;exitDx=0;exitDy=0;" edge="1" parent="1" source="McudIKGl9F88ILY4ECNT-9" target="McudIKGl9F88ILY4ECNT-3">
          <mxGeometry width="50" height="50" relative="1" as="geometry">
            <mxPoint x="110" y="190" as="sourcePoint" />
            <mxPoint x="110" y="150" as="targetPoint" />
          </mxGeometry>
        </mxCell>
        <mxCell id="McudIKGl9F88ILY4ECNT-18" value="" style="endArrow=none;html=1;rounded=0;entryX=0;entryY=1;entryDx=0;entryDy=0;exitX=0;exitY=0;exitDx=0;exitDy=0;" edge="1" parent="1" source="McudIKGl9F88ILY4ECNT-10" target="McudIKGl9F88ILY4ECNT-8">
          <mxGeometry width="50" height="50" relative="1" as="geometry">
            <mxPoint x="120" y="200" as="sourcePoint" />
            <mxPoint x="120" y="160" as="targetPoint" />
          </mxGeometry>
        </mxCell>
        <mxCell id="McudIKGl9F88ILY4ECNT-20" value="" style="endArrow=none;html=1;rounded=0;entryX=1;entryY=1;entryDx=0;entryDy=0;exitX=1;exitY=0;exitDx=0;exitDy=0;" edge="1" parent="1" source="McudIKGl9F88ILY4ECNT-11" target="McudIKGl9F88ILY4ECNT-9">
          <mxGeometry width="50" height="50" relative="1" as="geometry">
            <mxPoint x="140" y="220" as="sourcePoint" />
            <mxPoint x="140" y="180" as="targetPoint" />
          </mxGeometry>
        </mxCell>
      </root>
    </mxGraphModel>
  </diagram>
</mxfile>
